<?xml version="1.0" standalone="no"?>
<!DOCTYPE svg PUBLIC "-//W3C//DTD SVG 20010904//EN"
 "http://www.w3.org/TR/2001/REC-SVG-20010904/DTD/svg10.dtd">
<svg version="1.0" xmlns="http://www.w3.org/2000/svg"
 width="2501.000000pt" height="2500.000000pt" viewBox="0 0 2501.000000 2500.000000"
 preserveAspectRatio="xMidYMid meet">

<g transform="translate(0.000000,2500.000000) scale(0.100000,-0.100000)"
fill="#000000" stroke="none">
<path d="M11860 19437 c-316 -810 -600 -1537 -631 -1617 -31 -80 -100 -257
-153 -394 -54 -137 -96 -256 -93 -265 2 -9 160 -410 350 -891 309 -783 1135
-2877 2028 -5144 176 -445 319 -812 319 -817 0 -5 -1161 -9 -2692 -9 l-2693 0
-202 -523 c-111 -287 -335 -866 -498 -1287 -164 -421 -350 -902 -415 -1070
-65 -168 -296 -764 -513 -1325 -218 -561 -481 -1240 -586 -1510 l-189 -490
1471 -3 c809 -1 1474 1 1478 5 4 5 93 224 198 488 104 264 286 723 404 1020
118 297 342 863 498 1257 l284 718 2269 -3 2269 -2 667 -1690 c366 -930 675
-1714 685 -1743 l19 -52 1498 0 1497 0 -24 63 c-13 34 -178 451 -368 927 -190
476 -451 1133 -581 1460 -130 327 -323 812 -429 1077 l-192 483 -3833 -3
-3833 -2 -345 -870 c-190 -478 -443 -1117 -563 -1420 -120 -302 -276 -695
-346 -873 l-128 -322 -918 0 -918 0 24 63 c13 34 43 114 68 177 67 177 1241
3204 1312 3385 34 88 183 472 330 852 l268 693 4103 0 c2257 0 4105 3 4107 8
2 4 -161 421 -363 927 -202 506 -722 1811 -1155 2900 -911 2290 -1364 3428
-1755 4410 -271 682 -392 986 -897 2255 -134 338 -247 618 -251 622 -4 4 -266
-656 -582 -1465z m835 -572 c248 -622 453 -1137 798 -2005 573 -1439 927
-2331 1072 -2695 90 -225 445 -1119 790 -1985 345 -866 653 -1641 685 -1722
l58 -148 -927 0 -928 0 -263 668 c-145 367 -314 795 -376 952 -138 351 -1342
3404 -1429 3625 -35 88 -190 482 -345 875 -155 393 -285 722 -287 731 -3 9
187 509 422 1110 493 1263 476 1221 481 1217 1 -2 114 -282 249 -623z m4832
-12155 c189 -476 451 -1135 583 -1465 131 -330 242 -608 245 -617 7 -17 -41
-18 -928 -18 l-934 0 -21 53 c-11 28 -262 664 -557 1412 -295 748 -549 1393
-565 1433 l-28 72 930 -2 930 -3 345 -865z"/>
</g>
</svg>
