<svg id="Capa_1" enable-background="new 0 0 512 512" height="512" viewBox="0 0 512 512" width="512" xmlns="http://www.w3.org/2000/svg"><g><path d="m290.544 448.983 11.75 9.478c3.101-3.844 6.225-7.77 9.285-11.671l-11.878-9.318c-3.018 3.847-6.099 7.72-9.157 11.511z"/><path d="m256 0c-99.777 0-180.952 81.174-180.952 180.952 0 57.903 29.618 130.322 88.031 215.246 49.375 70.691 83.923 105.892 92.921 115.802 9.642-10.393 11.718-11.934 35.999-40.8l-11.612-9.646c-10.554 12.704-19.162 22.456-24.384 28.25-12.981-14.421-46.982-53.427-80.604-102.333-55.774-81.127-85.254-152.54-85.254-206.519 0-91.453 74.403-165.856 165.856-165.856s165.856 74.402 165.856 165.856c0 80.129-61.339 177.247-112.796 244.608l11.996 9.164c52.871-69.212 115.896-169.422 115.896-253.772-.001-99.778-81.176-180.952-180.953-180.952z"/><path d="m187.539 377.747 12.507-8.454-4.181-6.184-4.043-6.276-12.691 8.177 4.089 6.346z"/><path d="m165.897 334.192h15.096v15.096h-15.096z" transform="matrix(.854 -.52 .52 .854 -152.452 140.096)"/><path d="m351.95 277.917c52.907-52.912 52.907-139.005 0-191.917-25.629-25.631-59.705-39.747-95.95-39.747s-70.321 14.116-95.95 39.748c-30.752 30.755-44.954 74.782-37.989 117.771l14.902-2.415c-4.088-25.235.032-50.868 11.17-73.242h215.786c16.491 33.125 16.814 72.309.975 105.674h-217.802c-2.585-5.417-4.768-11.022-6.507-16.766l-14.449 4.375c6.421 21.208 18.147 40.753 33.913 56.52 25.629 25.631 59.705 39.748 95.95 39.748s70.322-14.117 95.951-39.749zm-194.883-164.898c4.03-5.799 8.59-11.275 13.658-16.343 22.778-22.78 53.062-35.326 85.275-35.326s62.497 12.546 85.275 35.326c5.123 5.123 9.686 10.597 13.693 16.343zm-1.381 135.866h200.649c-4.327 6.484-9.343 12.64-15.06 18.358-22.778 22.78-53.062 35.326-85.275 35.326s-62.497-12.546-85.275-35.326c-5.618-5.619-10.648-11.783-15.039-18.358z"/><path d="m221.05 191.324-.859 11.316 10.226 4.902 4.901 10.226 11.317-.857 9.365 6.39 9.365-6.39 11.317.858 4.901-10.227 10.226-4.903-.859-11.316 6.39-9.365-6.39-9.364.859-11.316-10.226-4.902-4.901-10.227-11.317.858-9.365-6.392-9.365 6.391-11.317-.858-4.901 10.226-10.226 4.903.859 11.317-6.39 9.364zm15.454-14.594-.479-6.302 5.709-2.737 2.736-5.709 6.302.478 5.228-3.568 5.228 3.568 6.302-.478 2.736 5.709 5.709 2.737-.479 6.302 3.568 5.229-3.568 5.229.479 6.302-5.709 2.737-2.736 5.71-6.301-.478-5.229 3.567-5.228-3.568-6.302.478-2.736-5.71-5.709-2.736.479-6.302-3.568-5.229z"/></g></svg>