<?xml version="1.0" encoding="iso-8859-1"?>
<!-- Generator: Adobe Illustrator 19.0.0, SVG Export Plug-In . SVG Version: 6.00 Build 0)  -->
<svg version="1.1" id="Layer_1" xmlns="http://www.w3.org/2000/svg" xmlns:xlink="http://www.w3.org/1999/xlink" x="0px" y="0px"
	 viewBox="0 0 512 512" style="enable-background:new 0 0 512 512;" xml:space="preserve">
<g>
	<path style="fill:#82AFFF;" d="M512,162.503H27.43V65.118c0-4.661,3.779-8.44,8.44-8.44h467.69c4.661,0,8.44,3.779,8.44,8.44
		V162.503z"/>
	<path style="fill:#82AFFF;" d="M503.56,374.155H35.87c-4.661,0-8.44-3.779-8.44-8.44V268.33H512v97.385
		C512,370.376,508.222,374.155,503.56,374.155z"/>
</g>
<rect x="27.43" y="162.498" style="fill:#F5F5F5;" width="484.57" height="105.83"/>
<path style="fill:#F09146;" d="M311.489,213.328h-30.081c0.56-0.426,1.004-0.845,1.407-1.24c0.734-0.718,1.318-1.289,2.867-1.925
	c1.558-0.653,2.374-0.66,3.407-0.677c1.244-0.008,2.651-0.033,4.952-0.979c2.297-0.955,3.3-1.934,4.185-2.799
	c0.734-0.717,1.318-1.289,2.872-1.934c1.547-0.645,2.358-0.653,3.386-0.66c1.241-0.017,2.647-0.033,4.948-0.987l-1.607-3.851
	c-1.547,0.645-2.358,0.653-3.386,0.66c-1.241,0.017-2.647,0.033-4.944,0.979c-2.297,0.955-3.3,1.934-4.185,2.798
	c-0.734,0.718-1.318,1.289-2.867,1.925c-1.558,0.653-2.374,0.66-3.407,0.677c-1.244,0.008-2.651,0.033-4.952,0.987
	c-2.297,0.946-3.3,1.934-4.185,2.798c-0.723,0.704-1.32,1.267-2.807,1.895l23.642-23.638l-2.953-2.953l-21.28,21.277
	c0.094-0.695,0.119-1.316,0.124-1.876c0.013-1.036,0.02-1.844,0.665-3.402c0.645-1.558,1.215-2.137,1.934-2.872
	c0.874-0.889,1.856-1.901,2.811-4.202c0.951-2.301,0.966-3.704,0.979-4.944c0.013-1.029,0.02-1.844,0.66-3.394
	c0.645-1.55,1.211-2.129,1.93-2.863c0.869-0.889,1.852-1.893,2.802-4.185l-3.859-1.599c-0.645,1.55-1.211,2.129-1.93,2.863
	c-0.869,0.889-1.852,1.893-2.802,4.185c-0.951,2.301-0.967,3.704-0.979,4.945c-0.013,1.028-0.02,1.844-0.66,3.394
	c-0.645,1.558-1.215,2.137-1.934,2.872c-0.872,0.889-1.856,1.901-2.811,4.202c-0.951,2.301-0.966,3.713-0.983,4.952
	c-0.008,1.006-0.036,1.819-0.64,3.313v-33.427h-4.178v30.08c-0.426-0.558-0.843-1-1.236-1.402c-0.722-0.734-1.289-1.322-1.934-2.872
	c-0.645-1.558-0.657-2.374-0.669-3.41c-0.013-1.241-0.029-2.651-0.983-4.952c-0.951-2.293-1.934-3.296-2.802-4.185
	c-0.718-0.734-1.285-1.313-1.93-2.864c-0.64-1.55-0.649-2.366-0.66-3.394c-0.013-1.24-0.028-2.644-0.979-4.936l-3.859,1.599
	c0.64,1.55,0.649,2.358,0.66,3.386c0.013,1.241,0.028,2.644,0.979,4.945c0.951,2.293,1.934,3.296,2.802,4.185
	c0.718,0.734,1.285,1.313,1.93,2.863c0.645,1.558,0.656,2.374,0.669,3.411c0.013,1.241,0.028,2.651,0.983,4.952
	c0.951,2.301,1.934,3.304,2.802,4.194c0.708,0.72,1.268,1.32,1.897,2.803l-23.644-23.641l-2.953,2.953l23.607,23.604
	c-1.294-0.589-1.92-1.128-2.598-1.787c-0.894-0.872-1.901-1.86-4.211-2.815c-2.301-0.946-3.708-0.971-4.952-0.987
	c-1.036-0.008-1.852-0.024-3.422-0.677c-1.571-0.645-2.159-1.215-2.904-1.942c-0.894-0.865-1.905-1.852-4.218-2.815
	c-2.309-0.955-3.721-0.971-4.969-0.987c-1.04-0.017-1.86-0.033-3.431-0.686l-1.599,3.868c2.309,0.955,3.721,0.971,4.969,0.987
	c1.04,0.017,1.86,0.033,3.431,0.686c1.575,0.645,2.162,1.215,2.909,1.942c0.894,0.874,1.905,1.853,4.214,2.806
	c2.309,0.963,3.72,0.979,4.965,0.995c1.036,0.017,1.852,0.024,3.414,0.677c1.562,0.645,2.146,1.215,2.884,1.934
	c0.379,0.372,0.803,0.765,1.317,1.167h-30.163v4.178h33.366c-1.318,0.502-2.143,0.564-3.088,0.579
	c-1.244,0.008-2.651,0.033-4.956,0.979c-2.305,0.955-3.317,1.942-4.209,2.806c-0.743,0.726-1.326,1.298-2.889,1.942
	c-1.571,0.653-2.391,0.669-3.431,0.686c-1.248,0.017-2.66,0.033-4.969,0.987c-2.313,0.963-3.324,1.941-4.218,2.815
	c-0.747,0.726-1.334,1.298-2.904,1.942l1.599,3.868c2.309-0.962,3.321-1.941,4.214-2.815c0.747-0.726,1.334-1.298,2.909-1.942
	c1.571-0.653,2.391-0.669,3.431-0.686c1.248-0.017,2.66-0.033,4.973-0.996c2.301-0.955,3.308-1.934,4.202-2.806
	c0.739-0.717,1.326-1.289,2.893-1.934c1.558-0.653,2.378-0.66,3.411-0.677c0.529-0.003,1.124-0.038,1.768-0.117l-21.341,21.339
	l2.953,2.953l23.595-23.592c-0.58,1.288-1.117,1.911-1.779,2.591c-0.869,0.889-1.852,1.901-2.806,4.202s-0.975,3.72-0.987,4.961
	c-0.016,1.036-0.024,1.852-0.673,3.418c-0.649,1.575-1.224,2.162-1.945,2.904c-0.872,0.889-1.856,1.91-2.815,4.218
	s-0.975,3.72-0.992,4.969c-0.016,1.036-0.028,1.86-0.677,3.427l3.859,1.599c0.959-2.309,0.975-3.721,0.992-4.969
	c0.017-1.036,0.028-1.86,0.677-3.427c0.649-1.574,1.224-2.162,1.945-2.904c0.872-0.889,1.856-1.91,2.815-4.218
	c0.955-2.301,0.975-3.72,0.987-4.961c0.017-1.036,0.024-1.852,0.673-3.418c0.645-1.567,1.215-2.146,1.938-2.889
	c0.371-0.38,0.765-0.805,1.167-1.32v30.169h4.178v-33.363c0.498,1.316,0.56,2.138,0.575,3.086c0.013,1.241,0.033,2.651,0.987,4.952
	c0.951,2.309,1.938,3.321,2.806,4.209c0.722,0.743,1.293,1.33,1.942,2.896s0.66,2.391,0.677,3.427
	c0.016,1.248,0.033,2.66,0.992,4.969c0.959,2.309,1.942,3.329,2.815,4.218c0.722,0.743,1.298,1.33,1.946,2.904l3.859-1.599
	c-0.959-2.309-1.942-3.329-2.815-4.218c-0.722-0.743-1.298-1.33-1.945-2.904c-0.649-1.567-0.66-2.391-0.677-3.427
	c-0.016-1.248-0.033-2.66-0.992-4.969c-0.955-2.309-1.938-3.321-2.806-4.209c-0.722-0.743-1.293-1.33-1.942-2.896
	c-0.649-1.558-0.656-2.375-0.673-3.411c-0.005-0.527-0.04-1.124-0.119-1.768l21.345,21.342l2.953-2.953l-21.277-21.274
	c0.691,0.092,1.309,0.119,1.867,0.127c1.032,0.008,1.844,0.017,3.402,0.66c1.558,0.653,2.142,1.215,2.88,1.942
	c0.889,0.865,1.897,1.852,4.198,2.806c2.297,0.946,3.704,0.963,4.944,0.971c1.028,0.016,1.84,0.024,3.39,0.669
	c1.55,0.636,2.129,1.208,2.864,1.925c0.889,0.865,1.893,1.852,4.189,2.806l1.599-3.868c-1.55-0.636-2.13-1.208-2.864-1.925
	c-0.889-0.865-1.893-1.853-4.189-2.806c-2.297-0.946-3.704-0.963-4.944-0.971c-1.028-0.017-1.84-0.024-3.39-0.669
	c-1.558-0.645-2.142-1.208-2.88-1.934c-0.889-0.865-1.897-1.852-4.198-2.799c-2.301-0.963-3.708-0.979-4.952-0.987
	c-1.013-0.017-1.833-0.036-3.335-0.645h33.454v-4.175L311.489,213.328L311.489,213.328z"/>
<path style="fill:#FFE15A;" d="M290.497,213.285c1.308,13.21-9.702,24.221-22.912,22.912c-9.775-0.968-17.682-8.875-18.649-18.649
	c-1.308-13.21,9.703-24.221,22.912-22.912C281.622,195.604,289.528,203.51,290.497,213.285z"/>
<path style="fill:#2E3033;" d="M19.122,488.101L19.122,488.101C8.561,488.101,0,479.539,0,468.979V42.864
	C0,32.39,8.491,23.899,18.965,23.899h0.157c10.561,0,19.122,8.561,19.122,19.122v425.958
	C38.244,479.539,29.683,488.101,19.122,488.101z"/>
<g>
</g>
<g>
</g>
<g>
</g>
<g>
</g>
<g>
</g>
<g>
</g>
<g>
</g>
<g>
</g>
<g>
</g>
<g>
</g>
<g>
</g>
<g>
</g>
<g>
</g>
<g>
</g>
<g>
</g>
</svg>
