<?xml version="1.0" standalone="no"?>
<!DOCTYPE svg PUBLIC "-//W3C//DTD SVG 20010904//EN"
 "http://www.w3.org/TR/2001/REC-SVG-20010904/DTD/svg10.dtd">
<svg version="1.0" xmlns="http://www.w3.org/2000/svg"
 width="512.000000pt" height="512.000000pt" viewBox="0 0 512.000000 512.000000"
 preserveAspectRatio="xMidYMid meet">

<g transform="translate(0.000000,512.000000) scale(0.100000,-0.100000)"
fill="#000000" stroke="none">
<path d="M2270 5025 c-562 -68 -1069 -315 -1471 -715 -752 -750 -941 -1901
-469 -2855 295 -598 801 -1043 1431 -1258 207 -70 393 -107 646 -128 172 -13
367 -3 571 32 1067 180 1894 1034 2047 2114 46 323 20 703 -71 1020 -256 891
-986 1569 -1891 1755 -235 49 -561 63 -793 35z m1353 -1479 c55 -20 103 -61
134 -114 24 -39 28 -58 28 -117 -1 -107 -48 -180 -145 -224 -44 -20 -60 -21
-1080 -21 -1020 0 -1036 1 -1080 21 -97 44 -144 117 -145 224 0 59 4 78 28
117 31 53 79 94 134 114 56 19 2070 19 2126 0z m-1161 -758 c56 -16 133 -88
153 -143 42 -108 -2 -239 -99 -300 l-49 -30 -461 -3 c-328 -2 -473 0 -503 9
-53 14 -117 68 -146 123 -33 63 -31 166 6 228 31 53 79 94 134 114 52 18 905
20 965 2z m1187 -16 c161 -86 183 -302 43 -409 -24 -18 -59 -37 -80 -43 -51
-14 -511 -13 -567 1 -56 14 -131 79 -156 134 -56 123 12 281 141 326 50 17 80
19 315 17 251 -3 262 -4 304 -26z m-1764 -743 c122 -34 200 -163 174 -287 -14
-71 -61 -130 -128 -164 -53 -27 -58 -28 -232 -28 -195 0 -221 6 -284 62 -57
49 -79 101 -80 183 0 59 4 78 28 117 31 54 76 91 133 112 48 18 330 21 389 5z
m1760 -15 c90 -49 137 -124 138 -220 1 -108 -72 -207 -173 -234 -26 -7 -226
-10 -592 -8 -550 3 -553 3 -595 25 -91 49 -146 162 -125 260 20 97 97 175 191
194 20 4 279 6 576 6 532 -2 541 -2 580 -23z"/>
</g>
</svg>
