<svg id="svg" xmlns="http://www.w3.org/2000/svg" xmlns:xlink="http://www.w3.org/1999/xlink" width="400" height="354.90767735665696" viewBox="0, 0, 400,354.90767735665696"><g id="svgg"><path id="path0" d="M99.981 19.922 C 99.561 20.617,89.200 38.503,76.957 59.670 C 56.752 94.600,12.803 170.558,11.374 173.019 C 10.800 174.009,11.594 175.420,55.400 251.154 C 79.935 293.573,100.213 328.501,100.462 328.771 C 100.940 329.292,99.298 332.064,140.350 261.419 C 167.857 214.083,182.522 188.856,211.082 139.747 C 225.257 115.374,239.037 91.672,241.706 87.075 C 259.106 57.101,280.097 20.989,280.740 19.922 L 281.502 18.659 191.123 18.659 L 100.744 18.659 99.981 19.922 M273.149 69.928 C 258.680 94.715,246.851 115.142,246.862 115.321 C 246.873 115.500,248.316 116.646,250.069 117.869 C 284.597 141.947,293.756 190.971,270.386 226.628 C 248.630 259.823,206.713 271.992,170.090 255.746 C 167.751 254.708,165.798 253.898,165.750 253.946 C 165.703 253.994,156.877 269.077,146.138 287.464 C 135.398 305.850,124.720 324.130,122.409 328.086 L 118.206 335.277 128.199 335.378 C 215.180 336.262,297.627 336.905,297.837 336.702 C 297.983 336.560,308.105 319.388,320.330 298.542 C 332.555 277.697,345.228 256.093,348.492 250.534 C 351.756 244.976,362.136 227.281,371.560 211.214 L 388.694 182.000 344.344 103.731 C 319.952 60.683,299.874 25.326,299.726 25.161 C 299.578 24.996,287.619 45.141,273.149 69.928 " stroke="none" fill="#000000" fill-rule="evenodd"></path></g></svg>