<?xml version="1.0" standalone="no"?>
<!DOCTYPE svg PUBLIC "-//W3C//DTD SVG 20010904//EN"
 "http://www.w3.org/TR/2001/REC-SVG-20010904/DTD/svg10.dtd">
<svg version="1.0" xmlns="http://www.w3.org/2000/svg"
 width="129.000000pt" height="101.000000pt" viewBox="0 0 129.000000 101.000000"
 preserveAspectRatio="xMidYMid meet">

<g transform="translate(0.000000,101.000000) scale(0.100000,-0.100000)"
fill="#000000" stroke="none">
<path d="M405 997 c-34 -11 -39 -16 -40 -42 0 -28 -3 -30 -100 -57 -54 -16
-105 -34 -112 -40 -17 -14 -17 -79 0 -102 11 -15 17 -17 35 -7 13 7 22 21 22
36 0 26 3 27 130 55 76 17 88 25 92 62 3 28 8 33 38 40 81 16 200 20 284 8
l88 -12 -6 -28 c-7 -38 5 -46 108 -70 114 -27 114 -27 118 -58 2 -21 9 -28 29
-30 26 -3 27 -1 30 49 5 61 -3 68 -96 94 -126 35 -125 34 -125 65 0 25 -5 31
-37 39 -52 15 -408 13 -458 -2z"/>
<path d="M548 783 c-4 -39 -44 -45 -58 -9 -12 34 -19 33 -17 -1 3 -37 -30 -44
-54 -12 -10 13 -19 19 -19 12 0 -6 5 -15 11 -18 6 -4 8 -14 5 -22 -4 -9 1 -21
10 -28 24 -17 9 -57 -19 -53 -19 3 -22 -2 -22 -31 0 -28 -6 -39 -33 -57 -30
-20 -36 -21 -60 -9 -15 8 -35 16 -45 19 -19 6 -33 33 -22 44 3 4 11 -1 16 -11
6 -9 18 -17 27 -17 16 1 16 1 0 11 -13 7 -16 18 -12 38 6 26 3 29 -31 35 -23
5 -42 3 -50 -4 -11 -9 -19 -8 -37 4 -12 9 -29 16 -38 15 -13 0 -13 -1 0 -7 39
-18 60 -39 60 -60 0 -27 41 -72 66 -72 9 0 32 -17 50 -37 28 -31 38 -36 52
-27 9 6 17 18 17 27 0 24 37 59 57 54 15 -4 18 1 18 34 l0 39 215 0 215 0 0
-35 c0 -27 4 -35 18 -35 10 0 29 -11 42 -25 13 -14 20 -25 16 -25 -4 0 -2 -9
4 -20 15 -27 36 -25 57 6 9 15 36 35 59 45 34 14 48 28 66 66 13 26 34 54 48
60 14 7 18 13 10 13 -9 0 -26 -7 -38 -16 -18 -12 -26 -13 -37 -4 -8 7 -27 9
-51 4 l-37 -7 24 -18 c17 -13 19 -19 9 -19 -8 0 -21 -9 -28 -20 -7 -11 -8 -20
-3 -20 6 0 14 8 20 17 5 10 13 14 17 10 12 -11 -10 -41 -32 -46 -10 -1 -27
-10 -36 -18 -16 -14 -21 -13 -58 11 -36 23 -41 31 -38 59 3 28 0 32 -19 29
-20 -3 -23 1 -23 28 0 18 6 33 15 36 8 4 12 10 9 15 -2 5 0 19 6 31 l11 23
-20 -22 c-33 -39 -57 -29 -52 20 3 25 -17 21 -21 -5 -2 -17 -11 -24 -30 -26
-23 -3 -28 1 -36 30 l-8 33 -7 -27 c-6 -21 -13 -28 -32 -28 -20 0 -25 5 -25
25 0 31 -17 33 -22 3 -5 -34 -45 -37 -58 -4 -12 33 -18 33 -22 -1z"/>
<path d="M40 642 c0 -4 6 -14 13 -21 10 -10 9 -11 -5 -6 -19 8 -25 -9 -8 -20
6 -4 8 -10 5 -15 -3 -4 8 -19 24 -33 17 -14 27 -27 24 -31 -3 -3 7 -11 23 -18
16 -7 35 -21 42 -30 7 -10 22 -18 32 -18 10 0 22 -4 25 -10 3 -5 -3 -10 -13
-10 -14 0 -30 -18 -51 -55 -18 -31 -39 -59 -47 -62 -28 -11 -34 11 -14 50 33
60 27 89 -30 152 -44 49 -50 52 -44 28 4 -15 11 -36 16 -46 5 -9 6 -22 3 -27
-3 -5 -1 -11 4 -14 5 -4 13 -2 16 4 11 18 35 -9 35 -39 -1 -14 -7 -37 -15 -51
-34 -59 -5 -96 46 -59 22 15 29 17 29 6 0 -19 -32 -47 -54 -47 -39 0 29 -108
77 -121 30 -8 51 9 41 35 -5 13 -14 15 -35 11 -25 -6 -29 -3 -35 21 -6 23 -2
31 25 54 28 22 33 33 34 75 2 47 4 51 42 72 55 31 130 31 159 0 18 -19 21 -33
18 -92 -6 -136 8 -157 117 -174 35 -6 74 -17 86 -25 20 -13 25 -13 35 -1 6 7
30 16 53 20 123 19 137 35 137 162 0 116 11 133 85 133 70 0 130 -35 131 -75
1 -17 2 -38 3 -47 0 -10 15 -30 31 -45 32 -28 36 -43 20 -74 -9 -16 -14 -17
-31 -6 -16 10 -21 9 -29 -3 -5 -8 -7 -22 -5 -31 5 -14 -7 -16 -97 -15 l-103 1
-3 -31 c-2 -23 -9 -34 -25 -38 -12 -3 -106 -6 -209 -6 l-188 0 0 30 c0 46 -24
53 -135 41 -141 -16 -166 -15 -172 9 -3 13 -14 20 -29 20 -30 0 -30 -14 -1
-65 l23 -40 124 -5 c69 -3 131 -9 138 -13 6 -5 12 -17 12 -28 0 -18 9 -19 250
-19 l250 0 0 25 c0 36 32 45 153 45 56 0 107 4 113 8 26 17 56 102 37 102 -27
1 -33 17 -18 46 19 38 19 44 -3 44 -21 0 -52 29 -52 48 0 7 5 12 10 12 6 0 10
-3 10 -8 0 -13 39 -32 55 -26 19 8 19 41 0 74 -18 32 -19 74 -1 89 11 10 17 8
25 -6 8 -14 11 -15 12 -3 1 8 1 19 0 23 -1 4 3 16 7 25 5 9 12 30 16 45 6 24
0 21 -44 -28 -58 -64 -63 -93 -28 -155 13 -21 20 -42 16 -45 -16 -16 -51 11
-79 61 -22 38 -37 54 -52 55 -18 0 -16 3 10 15 17 7 35 19 40 26 4 8 21 19 37
26 16 7 26 15 23 18 -3 4 7 17 24 31 16 14 27 29 24 33 -3 5 -1 11 5 15 5 3
10 11 10 16 0 6 -5 7 -11 3 -8 -4 -9 1 -4 16 6 18 -4 13 -49 -23 -30 -25 -76
-55 -101 -66 -25 -11 -62 -34 -83 -51 -27 -22 -47 -30 -75 -30 -37 0 -39 2
-33 25 5 20 3 25 -14 25 -11 0 -20 -7 -20 -15 0 -12 -12 -15 -52 -14 -39 0
-48 3 -33 9 20 9 20 9 -1 9 -11 1 -25 -4 -32 -11 -7 -7 -12 -8 -12 -2 0 6 10
16 23 22 19 9 19 11 3 11 -15 1 -16 4 -6 16 8 9 9 15 2 15 -6 0 -14 -4 -17
-10 -3 -5 -11 -10 -17 -10 -6 0 -3 10 8 21 19 21 19 22 -3 15 -18 -6 -21 -4
-16 16 4 22 4 22 -11 4 -16 -19 -16 -19 -16 4 0 23 -1 23 -14 5 -13 -18 -13
-18 -24 1 -11 18 -11 17 -12 -6 l-1 -25 -11 25 c-11 25 -12 25 -15 3 -3 -16
-9 -20 -21 -16 -14 5 -15 3 -4 -8 20 -22 14 -34 -8 -14 -20 18 -21 18 -14 0 6
-15 4 -17 -17 -12 -22 6 -22 5 6 -19 l30 -25 -32 16 c-33 15 -43 9 -22 -12 12
-12 3 -16 -63 -26 -22 -3 -28 0 -28 15 0 13 -6 18 -17 16 -12 -2 -17 -11 -15
-26 3 -19 -1 -22 -35 -22 -28 0 -48 8 -75 30 -21 17 -58 40 -83 51 -25 11 -70
40 -100 65 -30 24 -55 41 -55 36z m190 -164 c0 -12 -6 -9 -26 13 -19 22 -19
22 4 8 12 -8 22 -17 22 -21z m834 8 c-10 -8 -21 -12 -23 -10 -3 2 4 11 15 18
10 8 21 12 23 10 3 -2 -4 -11 -15 -18z m-496 -60 c3 -20 0 -27 -10 -24 -7 3
-14 17 -16 32 -3 20 0 27 10 24 7 -3 14 -17 16 -32z m175 28 c8 -9 -11 -44
-23 -44 -6 0 -10 8 -10 18 0 27 18 41 33 26z m-239 -26 c5 -9 7 -20 3 -24 -8
-8 -47 24 -47 38 0 15 32 5 44 -14z m304 10 c-6 -16 -36 -34 -44 -25 -9 9 15
37 33 37 8 0 13 -5 11 -12z m-198 -90 c28 -20 31 -20 48 -5 10 9 23 17 28 17
5 0 2 -5 -6 -10 -8 -5 -15 -13 -16 -17 0 -4 -6 -21 -13 -38 -8 -17 -10 -47 -7
-70 12 -76 11 -79 -6 -83 -16 -3 -17 4 -11 72 7 92 -2 110 -59 103 -20 -2 -35
0 -32 4 3 5 18 9 35 9 39 0 37 17 -6 34 -19 8 -35 17 -35 20 0 9 49 -13 80
-36z m208 25 c2 -8 -6 -13 -22 -13 -28 0 -43 15 -24 23 20 8 41 3 46 -10z
m-320 -9 c-9 -9 -24 -14 -32 -11 -27 11 -17 27 16 27 30 0 31 -1 16 -16z m242
12 c0 -2 -9 -6 -20 -9 -11 -3 -18 -1 -14 4 5 9 34 13 34 5z m-239 -61 c0 -5
-12 -11 -26 -13 -18 -2 -25 1 -25 13 0 12 7 15 25 13 14 -2 26 -7 26 -13z
m234 5 c3 -6 -1 -7 -9 -4 -18 7 -21 14 -7 14 6 0 13 -4 16 -10z m85 -5 c0 -15
-43 -12 -48 3 -3 10 4 13 22 10 15 -2 26 -7 26 -13z m-262 -52 c-4 -34 -28
-43 -28 -10 0 25 7 37 22 37 5 0 8 -12 6 -27z m182 -3 c0 -31 -16 -41 -26 -15
-8 19 2 45 16 45 5 0 10 -13 10 -30z m-240 7 c0 -14 -20 -37 -32 -37 -12 0
-10 24 4 38 16 16 28 15 28 -1z m310 -2 c7 -9 10 -19 6 -22 -8 -9 -38 9 -44
25 -5 17 23 15 38 -3z m338 -107 c-3 -7 -18 -14 -34 -16 l-29 -3 25 15 c32 18
43 19 38 4z"/>
<path d="M244 369 c-3 -6 -1 -16 5 -22 14 -14 14 -50 1 -63 -8 -8 5 -19 40
-37 40 -21 56 -24 75 -17 30 12 32 31 4 48 -15 10 -24 10 -34 2 -23 -19 -36
-2 -29 36 4 21 2 40 -6 49 -15 18 -46 20 -56 4z"/>
<path d="M971 366 c-8 -9 -10 -28 -6 -49 7 -38 -7 -56 -30 -37 -10 8 -19 8
-34 -2 -24 -15 -27 -31 -8 -45 18 -14 37 -11 90 16 35 17 45 27 38 34 -14 14
-14 50 0 64 6 6 8 16 5 22 -10 16 -41 14 -55 -3z"/>
</g>
</svg>
