<svg id="svg" version="1.1" xmlns="http://www.w3.org/2000/svg" xmlns:xlink="http://www.w3.org/1999/xlink" width="400" height="138.90675241157555" viewBox="0, 0, 400,138.90675241157555"><g id="svgg"><path id="path0" d="M14.750 0.116 C 13.661 0.368,11.142 1.249,10.521 1.594 C 10.120 1.817,9.728 2.000,9.651 2.000 C 9.500 2.000,7.561 3.262,6.768 3.876 C 6.141 4.362,4.354 6.150,3.879 6.768 C 3.151 7.713,2.000 9.464,2.000 9.626 C 2.000 9.717,1.817 10.120,1.593 10.521 C 1.369 10.922,0.938 12.000,0.634 12.917 L 0.083 14.583 0.083 69.417 L 0.083 124.250 0.638 125.917 C 1.529 128.597,2.572 130.492,4.218 132.417 C 5.690 134.139,7.306 135.479,9.333 136.660 C 10.162 137.142,11.954 137.887,13.250 138.287 L 14.750 138.750 200.000 138.750 L 385.250 138.750 386.750 138.277 C 393.097 136.277,397.411 131.962,399.440 125.583 L 399.917 124.083 399.917 69.417 L 399.917 14.750 399.440 13.250 C 398.301 9.670,396.329 6.564,393.833 4.419 C 392.875 3.596,390.572 2.000,390.342 2.000 C 390.269 2.000,389.876 1.814,389.469 1.587 C 389.063 1.359,387.984 0.928,387.073 0.628 L 385.417 0.083 200.250 0.061 C 98.408 0.048,14.933 0.073,14.750 0.116 M386.250 3.145 C 391.223 4.820,394.828 8.234,396.527 12.876 C 397.559 15.697,397.500 13.138,397.500 55.098 L 397.500 93.500 199.998 93.500 L 2.496 93.500 2.540 54.458 L 2.584 15.417 2.968 14.178 C 4.807 8.241,9.325 4.013,15.167 2.759 C 16.090 2.560,43.412 2.530,200.417 2.555 L 384.583 2.583 386.250 3.145 M42.250 21.261 C 16.342 25.214,10.475 60.145,33.687 72.243 C 54.862 83.279,79.028 63.353,72.388 40.333 C 71.856 38.489,71.937 38.512,70.541 39.801 L 69.331 40.917 69.765 42.917 C 73.031 57.979,61.649 72.089,46.250 72.066 C 25.577 72.036,14.620 47.897,28.207 32.318 C 36.017 23.363,49.891 21.477,59.469 28.067 C 60.231 28.592,60.910 28.997,60.978 28.969 C 61.544 28.730,63.475 27.381,63.439 27.250 C 63.363 26.977,61.069 25.271,59.619 24.409 C 54.910 21.608,48.084 20.371,42.250 21.261 M44.333 26.839 C 25.773 28.519,18.017 52.192,32.093 64.203 C 47.201 77.095,69.950 64.880,67.514 45.182 C 67.239 42.958,67.218 42.944,66.141 44.280 C 64.469 46.353,64.500 46.282,64.500 48.046 C 64.500 65.475,41.967 73.026,31.646 59.056 C 20.067 43.382,37.771 23.065,55.038 32.211 L 56.326 32.893 57.455 31.822 C 58.075 31.232,58.601 30.712,58.623 30.667 C 58.680 30.549,56.937 29.459,55.750 28.871 C 52.540 27.280,48.131 26.495,44.333 26.839 M89.019 33.914 C 82.213 35.454,78.609 40.091,79.682 45.928 C 80.398 49.829,83.291 52.022,90.087 53.818 C 95.716 55.305,96.462 55.536,97.574 56.138 C 99.181 57.008,99.716 57.716,99.803 59.085 C 99.966 61.642,98.338 63.085,94.800 63.519 C 89.911 64.120,86.424 62.148,85.785 58.422 L 85.599 57.333 81.945 57.333 L 78.290 57.333 78.407 58.542 C 79.043 65.147,84.001 69.149,91.923 69.450 C 101.318 69.807,107.184 65.675,107.232 58.667 C 107.271 52.908,104.502 50.430,95.417 48.095 C 87.697 46.111,86.634 45.478,86.889 43.010 C 87.155 40.431,90.253 38.987,94.089 39.655 C 96.912 40.147,98.177 41.383,98.747 44.208 L 98.840 44.667 102.520 44.667 L 106.199 44.667 106.088 43.625 C 105.567 38.733,102.816 35.681,97.620 34.228 C 95.676 33.684,90.819 33.507,89.019 33.914 M124.167 33.775 C 115.419 35.422,110.253 42.073,110.268 51.667 C 110.286 62.051,116.580 69.092,126.167 69.452 C 133.502 69.726,138.903 66.383,141.181 60.157 C 141.685 58.780,142.167 56.701,142.167 55.902 L 142.167 55.500 138.519 55.500 L 134.871 55.500 134.755 56.292 C 133.503 64.807,122.022 65.679,118.847 57.500 C 117.242 53.367,117.567 47.630,119.601 44.159 C 123.110 38.172,132.215 38.741,134.361 45.081 L 134.643 45.917 138.238 45.962 L 141.833 46.007 141.833 45.458 C 141.833 42.960,139.728 39.111,137.167 36.925 C 134.360 34.531,128.148 33.025,124.167 33.775 M147.333 51.577 L 147.333 68.667 151.081 68.667 L 154.830 68.667 154.873 62.042 L 154.917 55.417 159.667 55.417 C 167.225 55.417,167.728 55.875,168.425 63.404 C 168.578 65.048,168.826 66.885,168.976 67.488 L 169.250 68.583 173.042 68.628 C 175.127 68.653,176.833 68.630,176.833 68.578 C 176.833 68.526,176.708 68.243,176.554 67.950 C 176.078 67.039,175.842 65.689,175.647 62.750 C 175.237 56.603,174.122 54.004,171.418 52.892 C 170.490 52.510,170.490 52.509,171.535 52.000 C 178.170 48.766,177.144 38.059,169.917 35.125 L 168.583 34.583 157.958 34.536 L 147.333 34.488 147.333 51.577 M181.879 46.458 C 181.962 60.616,182.018 61.059,184.092 64.179 C 189.205 71.871,205.437 71.278,209.530 63.250 C 211.122 60.130,211.159 59.731,211.163 46.042 L 211.167 34.500 207.417 34.500 L 203.667 34.500 203.663 45.542 C 203.659 58.733,203.574 59.612,202.137 61.245 C 199.511 64.228,192.330 63.705,190.471 60.396 C 189.533 58.725,189.506 58.324,189.503 45.875 L 189.500 34.500 185.654 34.500 L 181.808 34.500 181.879 46.458 M217.667 51.581 L 217.667 68.667 221.250 68.667 L 224.833 68.667 224.844 56.708 C 224.854 46.636,224.890 44.855,225.073 45.417 C 225.193 45.783,226.319 49.008,227.576 52.583 C 228.833 56.158,230.502 60.921,231.283 63.167 C 232.065 65.412,232.816 67.569,232.951 67.958 L 233.198 68.667 236.152 68.667 L 239.106 68.667 240.625 64.292 C 241.460 61.885,242.817 57.967,243.641 55.583 C 244.464 53.200,245.651 49.770,246.277 47.961 L 247.417 44.671 247.459 56.669 L 247.502 68.667 251.084 68.667 L 254.667 68.667 254.667 51.581 L 254.667 34.495 249.306 34.539 L 243.944 34.583 243.566 35.750 C 242.737 38.303,237.445 54.772,236.720 57.057 C 236.397 58.071,236.362 58.025,235.498 55.500 C 233.313 49.109,230.332 40.355,229.427 37.667 L 228.388 34.583 223.027 34.539 L 217.667 34.495 217.667 51.581 M164.995 40.514 C 167.202 40.988,168.250 42.430,168.250 44.995 C 168.250 49.222,167.172 49.833,159.720 49.833 L 154.833 49.833 154.833 45.194 C 154.833 42.643,154.883 40.506,154.944 40.444 C 155.132 40.256,164.082 40.319,164.995 40.514 M188.466 104.458 L 188.515 105.667 184.924 105.667 L 181.333 105.667 181.333 115.083 L 181.333 124.500 179.917 124.500 L 178.500 124.500 178.500 115.083 L 178.500 105.667 175.000 105.667 L 171.500 105.667 171.500 104.415 L 171.500 103.164 179.958 103.207 L 188.417 103.250 188.466 104.458 M296.150 103.327 C 299.922 103.692,301.728 105.718,301.725 109.583 C 301.721 114.436,299.657 115.833,292.492 115.833 L 288.667 115.833 288.667 120.167 L 288.667 124.500 287.250 124.500 L 285.833 124.500 285.833 113.944 C 285.833 108.139,285.883 103.339,285.944 103.278 C 286.110 103.112,294.340 103.152,296.150 103.327 M30.870 104.042 C 31.021 104.431,31.362 105.313,31.628 106.000 C 31.894 106.688,32.920 109.313,33.908 111.833 C 34.896 114.354,36.188 117.654,36.780 119.167 C 37.371 120.679,38.075 122.470,38.344 123.146 C 38.613 123.821,38.833 124.403,38.833 124.437 C 38.833 124.472,38.132 124.500,37.274 124.500 L 35.714 124.500 34.957 122.458 C 34.540 121.335,34.024 119.910,33.809 119.292 L 33.418 118.167 28.911 118.167 L 24.403 118.167 23.235 121.292 L 22.067 124.417 20.617 124.465 C 19.809 124.492,19.167 124.445,19.167 124.359 C 19.167 124.275,19.493 123.391,19.892 122.395 C 20.291 121.398,21.263 118.933,22.052 116.917 C 22.841 114.900,24.130 111.607,24.917 109.600 C 25.705 107.592,26.576 105.361,26.853 104.641 L 27.358 103.333 28.976 103.333 L 30.595 103.333 30.870 104.042 M69.000 107.239 L 69.000 111.145 69.875 110.281 C 72.006 108.176,76.315 108.146,78.094 110.225 C 79.164 111.475,79.224 111.891,79.294 118.542 L 79.356 124.500 78.017 124.500 L 76.679 124.500 76.631 118.625 C 76.584 112.773,76.582 112.748,76.194 112.205 C 75.039 110.585,71.963 110.576,70.353 112.186 C 69.178 113.361,69.108 113.751,69.039 119.458 L 68.978 124.500 67.739 124.500 L 66.500 124.500 66.500 113.917 L 66.500 103.333 67.750 103.333 L 69.000 103.333 69.000 107.239 M112.833 104.833 L 112.833 106.333 111.583 106.333 L 110.333 106.333 110.333 104.833 L 110.333 103.333 111.583 103.333 L 112.833 103.333 112.833 104.833 M161.000 113.917 L 161.000 124.500 159.750 124.500 L 158.500 124.500 158.500 123.587 L 158.500 122.674 157.818 123.414 C 156.441 124.908,153.105 125.434,150.792 124.521 C 144.869 122.184,144.892 111.373,150.825 109.153 C 153.275 108.236,156.250 108.750,157.868 110.368 L 158.500 111.000 158.500 107.167 L 158.500 103.333 159.750 103.333 L 161.000 103.333 161.000 113.917 M216.167 104.833 L 216.167 106.333 214.917 106.333 L 213.667 106.333 213.667 104.833 L 213.667 103.333 214.917 103.333 L 216.167 103.333 216.167 104.833 M239.500 104.833 L 239.500 106.333 238.250 106.333 L 237.000 106.333 237.000 104.833 L 237.000 103.333 238.250 103.333 L 239.500 103.333 239.500 104.833 M60.630 106.875 L 60.676 109.167 62.171 109.167 L 63.667 109.167 63.667 110.250 L 63.667 111.333 62.167 111.333 L 60.667 111.333 60.667 116.563 C 60.667 122.626,60.539 122.212,62.440 122.308 L 63.667 122.370 63.667 123.452 L 63.667 124.534 61.617 124.475 C 58.041 124.373,58.101 124.498,58.032 116.958 L 57.980 111.333 56.740 111.333 L 55.500 111.333 55.500 110.250 L 55.500 109.167 56.750 109.167 L 58.000 109.167 58.000 106.826 L 58.000 104.486 59.292 104.535 L 60.583 104.583 60.630 106.875 M334.370 106.792 L 334.417 109.083 335.958 109.131 L 337.500 109.179 337.500 110.250 L 337.500 111.321 335.958 111.369 L 334.417 111.417 334.417 116.536 C 334.417 122.571,334.301 122.208,336.253 122.307 L 337.500 122.370 337.500 123.452 L 337.500 124.534 335.451 124.475 C 331.857 124.372,331.933 124.530,331.865 117.042 L 331.813 111.333 330.490 111.333 L 329.167 111.333 329.167 110.250 L 329.167 109.167 330.500 109.167 L 331.833 109.167 331.833 106.833 L 331.833 104.500 333.079 104.500 L 334.324 104.500 334.370 106.792 M288.667 109.591 L 288.667 113.544 292.292 113.467 C 297.448 113.359,298.563 112.784,298.926 110.047 C 299.354 106.823,297.790 105.785,292.375 105.698 L 288.667 105.639 288.667 109.591 M28.616 106.699 C 28.475 107.094,27.973 108.467,27.499 109.750 C 27.026 111.033,26.347 112.890,25.991 113.875 L 25.343 115.667 28.904 115.667 L 32.465 115.667 31.823 113.875 C 28.594 104.863,28.970 105.703,28.616 106.699 M92.555 109.146 C 98.885 111.393,98.905 122.328,92.583 124.508 C 87.995 126.091,83.590 123.833,82.484 119.333 C 80.784 112.414,86.233 106.903,92.555 109.146 M108.333 109.976 L 108.333 111.284 107.152 111.480 C 103.455 112.090,102.676 113.780,102.670 121.208 L 102.667 124.500 101.417 124.500 L 100.167 124.500 100.167 116.833 L 100.167 109.167 101.333 109.167 L 102.500 109.167 102.500 110.583 C 102.500 112.119,102.598 112.276,103.066 111.485 C 104.097 109.740,105.796 108.712,107.708 108.678 L 108.333 108.667 108.333 109.976 M140.246 109.169 C 142.707 110.115,144.661 113.448,144.665 116.708 L 144.667 117.500 138.812 117.500 L 132.957 117.500 133.067 118.375 C 133.643 122.958,139.946 124.459,141.611 120.410 L 141.917 119.668 143.146 119.667 L 144.375 119.667 144.268 120.208 C 143.123 126.016,134.124 126.761,131.412 121.273 C 127.939 114.245,133.528 106.588,140.246 109.169 M195.833 109.988 L 195.833 111.309 194.875 111.421 C 191.083 111.863,190.167 113.653,190.167 120.614 L 190.167 124.500 188.917 124.500 L 187.667 124.500 187.667 116.833 L 187.667 109.167 188.827 109.167 L 189.987 109.167 190.035 110.708 L 190.083 112.250 190.389 111.689 C 191.367 109.897,193.237 108.708,195.125 108.678 L 195.833 108.667 195.833 109.988 M206.917 109.083 C 209.425 109.939,209.564 110.334,209.667 116.917 C 209.757 122.702,209.751 122.667,210.593 122.667 L 211.167 122.667 211.167 123.650 C 211.167 125.026,209.534 125.551,208.152 124.620 C 207.660 124.288,207.488 123.993,207.230 123.036 C 207.193 122.896,206.879 123.053,206.337 123.482 C 202.695 126.360,197.129 125.047,196.729 121.215 C 196.364 117.730,197.963 116.442,203.825 115.497 C 206.593 115.051,207.292 114.533,207.080 113.083 C 206.639 110.060,200.000 110.318,200.000 113.358 L 200.000 113.833 198.652 113.833 L 197.304 113.833 197.414 113.125 C 197.962 109.601,202.625 107.618,206.917 109.083 M229.824 108.984 C 231.190 109.409,231.880 109.973,232.445 111.124 L 232.917 112.083 232.966 118.292 L 233.015 124.500 231.766 124.500 L 230.516 124.500 230.466 118.696 L 230.417 112.892 229.967 112.213 C 228.765 110.397,225.249 110.626,223.731 112.618 C 222.936 113.662,222.833 114.478,222.833 119.758 L 222.833 124.500 221.500 124.500 L 220.167 124.500 220.167 116.833 L 220.167 109.167 221.417 109.167 L 222.667 109.167 222.667 110.263 L 222.667 111.360 223.498 110.450 C 224.999 108.808,227.440 108.242,229.824 108.984 M253.038 108.998 C 255.845 109.865,256.071 110.541,256.134 118.292 L 256.185 124.500 254.926 124.500 L 253.667 124.500 253.667 119.025 C 253.667 111.611,253.297 110.802,250.018 111.038 C 246.601 111.283,246.000 112.565,246.000 119.614 L 246.000 124.500 244.667 124.500 L 243.333 124.500 243.333 116.833 L 243.333 109.167 244.583 109.167 L 245.833 109.167 245.833 110.268 L 245.833 111.369 246.606 110.510 C 248.160 108.782,250.533 108.224,253.038 108.998 M268.630 109.163 C 269.179 109.401,269.790 109.857,270.255 110.374 L 271.000 111.203 271.000 110.185 L 271.000 109.167 272.175 109.167 L 273.351 109.167 273.300 117.458 C 273.244 126.698,273.257 126.590,272.013 128.398 C 269.206 132.477,259.833 131.098,259.833 126.606 C 259.833 126.086,262.298 126.219,262.431 126.746 C 262.924 128.711,267.055 129.455,269.045 127.938 C 270.245 127.022,271.132 124.539,270.969 122.555 L 270.917 121.917 270.527 122.544 C 268.450 125.884,262.230 125.179,260.201 121.373 C 256.591 114.600,262.257 106.392,268.630 109.163 M314.361 109.156 C 316.831 110.092,316.905 110.311,316.967 116.910 C 317.022 122.663,317.022 122.667,317.937 122.667 L 318.500 122.667 318.500 123.650 C 318.500 125.622,315.329 125.533,314.695 123.544 L 314.473 122.847 313.653 123.495 C 309.701 126.619,304.080 124.908,304.085 120.583 C 304.089 117.249,305.423 116.378,312.143 115.323 C 314.237 114.994,314.954 113.846,314.098 112.194 C 312.941 109.960,307.333 110.925,307.333 113.358 L 307.333 113.833 305.979 113.833 L 304.624 113.833 304.736 113.132 C 305.313 109.522,310.105 107.542,314.361 109.156 M329.000 109.988 L 329.000 111.309 328.042 111.421 C 324.277 111.860,323.337 113.714,323.335 120.708 L 323.333 124.500 322.083 124.500 L 320.833 124.500 320.833 116.833 L 320.833 109.167 322.000 109.167 L 323.167 109.167 323.176 110.708 C 323.184 111.968,323.223 112.193,323.385 111.936 C 324.755 109.769,326.371 108.714,328.375 108.678 L 329.000 108.667 329.000 109.988 M350.299 109.167 C 352.645 110.178,352.882 111.011,352.960 118.542 L 353.023 124.500 351.684 124.500 L 350.345 124.500 350.298 118.595 C 350.252 112.902,350.238 112.674,349.901 112.220 C 348.691 110.589,345.634 110.572,344.020 112.186 C 342.845 113.361,342.774 113.751,342.705 119.458 L 342.645 124.500 341.406 124.500 L 340.167 124.500 340.167 116.833 L 340.167 109.167 341.333 109.167 L 342.500 109.167 342.501 110.292 L 342.502 111.417 343.186 110.619 C 344.769 108.772,347.898 108.134,350.299 109.167 M365.874 109.161 C 368.337 110.093,369.934 112.690,370.271 116.311 L 370.381 117.500 364.502 117.500 L 358.624 117.500 358.739 118.375 C 359.099 121.113,360.819 122.668,363.485 122.666 C 365.371 122.664,366.705 121.866,367.263 120.406 L 367.545 119.667 368.793 119.667 L 370.042 119.667 369.941 120.169 C 368.804 125.854,359.987 126.765,357.174 121.489 C 353.453 114.506,359.048 106.577,365.874 109.161 M381.000 109.976 L 381.000 111.284 379.819 111.480 C 376.121 112.090,375.343 113.780,375.336 121.208 L 375.333 124.500 374.083 124.500 L 372.833 124.500 372.833 116.833 L 372.833 109.167 374.000 109.167 L 375.167 109.167 375.167 110.583 C 375.167 112.208,375.241 112.278,375.885 111.258 C 376.894 109.662,378.510 108.735,380.375 108.684 L 381.000 108.667 381.000 109.976 M43.004 114.708 C 43.009 122.147,43.388 122.935,46.820 122.623 C 50.080 122.328,50.667 121.034,50.667 114.137 L 50.667 109.167 52.000 109.167 L 53.333 109.167 53.333 116.833 L 53.333 124.500 52.083 124.500 L 50.833 124.500 50.833 123.394 L 50.833 122.288 50.458 122.769 C 47.978 125.947,42.626 125.732,40.979 122.387 C 40.587 121.591,40.583 121.521,40.531 115.375 L 40.478 109.167 41.739 109.167 L 43.000 109.167 43.004 114.708 M112.833 116.833 L 112.833 124.500 111.583 124.500 L 110.333 124.500 110.333 116.833 L 110.333 109.167 111.583 109.167 L 112.833 109.167 112.833 116.833 M128.167 110.049 L 128.167 110.931 123.583 116.500 C 121.063 119.563,119.000 122.129,119.000 122.201 C 119.000 122.274,121.175 122.333,123.833 122.333 L 128.667 122.333 128.667 123.417 L 128.667 124.500 122.167 124.500 L 115.667 124.500 115.667 123.501 L 115.667 122.501 120.096 117.148 C 122.532 114.204,124.565 111.692,124.614 111.564 C 124.688 111.371,124.005 111.333,120.434 111.333 L 116.167 111.333 116.167 110.250 L 116.167 109.167 122.167 109.167 L 128.167 109.167 128.167 110.049 M216.167 116.833 L 216.167 124.500 214.917 124.500 L 213.667 124.500 213.667 116.833 L 213.667 109.167 214.917 109.167 L 216.167 109.167 216.167 116.833 M239.500 116.833 L 239.500 124.500 238.250 124.500 L 237.000 124.500 237.000 116.833 L 237.000 109.167 238.250 109.167 L 239.500 109.167 239.500 116.833 M88.077 111.265 C 83.831 112.773,83.882 120.959,88.145 122.412 C 91.957 123.711,95.080 120.427,94.498 115.732 C 94.060 112.206,91.143 110.176,88.077 111.265 M135.577 111.394 C 134.322 111.979,133.302 113.393,133.140 114.771 L 133.083 115.250 137.458 115.294 L 141.833 115.339 141.830 114.794 C 141.812 112.107,138.230 110.159,135.577 111.394 M151.730 111.390 C 148.069 113.139,148.195 120.542,151.915 122.275 C 156.331 124.331,160.218 118.925,158.017 113.791 C 156.990 111.394,154.062 110.276,151.730 111.390 M264.814 111.230 C 262.490 112.061,261.371 114.936,262.015 118.422 C 263.019 123.851,269.388 123.812,270.599 118.369 C 271.665 113.579,268.651 109.859,264.814 111.230 M361.250 111.397 C 359.925 112.024,358.963 113.343,358.806 114.750 L 358.750 115.250 363.148 115.294 L 367.546 115.339 367.439 114.558 C 367.065 111.831,363.828 110.178,361.250 111.397 M206.362 116.936 C 206.056 117.070,205.006 117.290,204.028 117.426 C 200.577 117.906,199.333 118.700,199.333 120.428 C 199.333 123.439,205.226 123.440,206.787 120.429 C 207.080 119.866,207.316 116.657,207.064 116.680 C 206.983 116.688,206.667 116.803,206.362 116.936 M313.695 116.946 C 313.390 117.074,312.340 117.290,311.362 117.426 C 307.910 117.906,306.667 118.700,306.667 120.428 C 306.667 123.423,312.562 123.442,314.109 120.451 C 314.395 119.898,314.630 116.929,314.398 116.797 C 314.317 116.751,314.000 116.818,313.695 116.946 " stroke="none" fill="#000000" fill-rule="evenodd"></path><path id="path1" d="M15.167 2.759 C 9.325 4.013,4.807 8.241,2.968 14.178 L 2.584 15.417 2.540 54.458 L 2.496 93.500 199.998 93.500 L 397.500 93.500 397.500 55.098 C 397.500 13.138,397.559 15.697,396.527 12.876 C 394.828 8.234,391.223 4.820,386.250 3.145 L 384.583 2.583 200.417 2.555 C 43.412 2.530,16.090 2.560,15.167 2.759 M95.833 19.846 C 77.387 26.277,63.675 39.092,53.624 59.293 L 52.110 62.337 50.797 59.043 C 49.190 55.013,47.562 51.044,46.479 48.518 C 45.994 47.387,45.721 46.545,45.804 46.435 C 57.403 31.056,78.754 19.617,96.333 19.366 L 97.250 19.352 95.833 19.846 M50.333 21.254 C 54.846 21.892,58.768 23.513,62.180 26.147 C 62.847 26.662,63.413 27.158,63.439 27.250 C 63.475 27.381,61.544 28.730,60.978 28.969 C 60.910 28.997,60.231 28.592,59.469 28.067 C 49.891 21.477,36.017 23.363,28.207 32.318 C 14.620 47.897,25.577 72.036,46.250 72.066 C 61.649 72.089,73.031 57.979,69.765 42.917 L 69.331 40.917 70.541 39.801 C 71.937 38.512,71.856 38.489,72.388 40.333 C 76.003 52.867,70.316 66.250,58.833 72.232 C 40.740 81.657,19.093 68.542,19.110 48.167 C 19.124 31.453,33.690 18.898,50.333 21.254 M50.550 27.185 C 52.484 27.538,54.152 28.078,55.750 28.871 C 56.937 29.459,58.680 30.549,58.623 30.667 C 58.601 30.712,58.075 31.232,57.455 31.822 L 56.326 32.893 55.038 32.211 C 42.297 25.463,27.218 34.939,28.059 49.167 C 28.893 63.269,44.654 71.082,56.444 63.236 C 61.398 59.940,64.500 54.091,64.500 48.046 C 64.500 46.282,64.469 46.353,66.141 44.280 C 67.218 42.944,67.239 42.958,67.514 45.182 C 70.109 66.165,43.897 78.127,30.142 62.237 C 16.748 46.764,30.299 23.490,50.550 27.185 M97.620 34.228 C 102.816 35.681,105.567 38.733,106.088 43.625 L 106.199 44.667 102.520 44.667 L 98.840 44.667 98.747 44.208 C 98.177 41.383,96.912 40.147,94.089 39.655 C 90.253 38.987,87.155 40.431,86.889 43.010 C 86.634 45.478,87.697 46.111,95.417 48.095 C 104.502 50.430,107.271 52.908,107.232 58.667 C 107.184 65.675,101.318 69.807,91.923 69.450 C 84.001 69.149,79.043 65.147,78.407 58.542 L 78.290 57.333 81.945 57.333 L 85.599 57.333 85.785 58.422 C 86.536 62.802,92.464 65.089,97.365 62.889 C 100.681 61.401,100.790 57.879,97.574 56.138 C 96.462 55.536,95.716 55.305,90.087 53.818 C 81.501 51.550,78.431 47.987,79.740 41.813 C 81.047 35.643,89.644 31.996,97.620 34.228 M131.583 34.144 C 137.124 35.646,141.833 40.844,141.833 45.458 L 141.833 46.007 138.238 45.962 L 134.643 45.917 134.361 45.081 C 132.215 38.741,123.110 38.172,119.601 44.159 C 117.567 47.630,117.242 53.367,118.847 57.500 C 122.022 65.679,133.503 64.807,134.755 56.292 L 134.871 55.500 138.519 55.500 L 142.167 55.500 142.167 55.902 C 142.167 62.164,136.540 68.296,129.832 69.347 C 118.840 71.067,110.288 63.339,110.268 51.667 C 110.253 42.073,115.419 35.422,124.167 33.775 C 125.376 33.547,130.282 33.792,131.583 34.144 M40.565 38.509 C 41.425 40.658,43.936 46.927,46.145 52.439 C 48.354 57.951,50.205 62.574,50.258 62.711 C 50.424 63.142,48.853 63.415,46.250 63.408 C 43.501 63.400,41.964 63.062,39.611 61.947 L 38.139 61.250 34.973 53.833 C 30.648 43.702,31.047 44.853,31.400 43.530 C 32.242 40.370,34.837 36.839,37.655 35.020 C 38.970 34.171,38.700 33.846,40.565 38.509 M169.917 35.125 C 177.144 38.059,178.170 48.766,171.535 52.000 C 170.490 52.509,170.490 52.510,171.418 52.892 C 174.122 54.004,175.237 56.603,175.647 62.750 C 175.842 65.689,176.078 67.039,176.554 67.950 C 176.708 68.243,176.833 68.526,176.833 68.578 C 176.833 68.630,175.127 68.653,173.042 68.628 L 169.250 68.583 168.976 67.488 C 168.826 66.885,168.578 65.048,168.425 63.404 C 167.728 55.875,167.225 55.417,159.667 55.417 L 154.917 55.417 154.873 62.042 L 154.830 68.667 151.081 68.667 L 147.333 68.667 147.333 51.577 L 147.333 34.488 157.958 34.536 L 168.583 34.583 169.917 35.125 M189.503 45.875 C 189.506 58.324,189.533 58.725,190.471 60.396 C 192.330 63.705,199.511 64.228,202.137 61.245 C 203.574 59.612,203.659 58.733,203.663 45.542 L 203.667 34.500 207.417 34.500 L 211.167 34.500 211.163 46.042 C 211.159 59.731,211.122 60.130,209.530 63.250 C 205.437 71.278,189.205 71.871,184.092 64.179 C 182.018 61.059,181.962 60.616,181.879 46.458 L 181.808 34.500 185.654 34.500 L 189.500 34.500 189.503 45.875 M229.427 37.667 C 230.332 40.355,233.313 49.109,235.498 55.500 C 236.362 58.025,236.397 58.071,236.720 57.057 C 237.445 54.772,242.737 38.303,243.566 35.750 L 243.944 34.583 249.306 34.539 L 254.667 34.495 254.667 51.581 L 254.667 68.667 251.084 68.667 L 247.502 68.667 247.459 56.669 L 247.417 44.671 246.277 47.961 C 245.651 49.770,244.464 53.200,243.641 55.583 C 242.817 57.967,241.460 61.885,240.625 64.292 L 239.106 68.667 236.152 68.667 L 233.198 68.667 232.951 67.958 C 232.816 67.569,232.065 65.412,231.283 63.167 C 230.502 60.921,228.833 56.158,227.576 52.583 C 226.319 49.008,225.193 45.783,225.073 45.417 C 224.890 44.855,224.854 46.636,224.844 56.708 L 224.833 68.667 221.250 68.667 L 217.667 68.667 217.667 51.581 L 217.667 34.495 223.027 34.539 L 228.388 34.583 229.427 37.667 M353.333 51.500 L 353.333 68.500 350.167 68.500 L 347.000 68.500 346.991 66.875 C 346.983 65.293,346.975 65.261,346.700 65.665 C 344.361 69.097,338.859 70.140,334.535 67.969 C 327.980 64.680,326.228 53.323,331.274 46.830 C 334.756 42.348,342.316 41.902,345.955 45.963 L 346.660 46.750 346.663 40.625 L 346.667 34.500 350.000 34.500 L 353.333 34.500 353.333 51.500 M293.000 38.000 L 293.000 41.333 289.667 41.333 L 286.333 41.333 286.333 38.000 L 286.333 34.667 289.667 34.667 L 293.000 34.667 293.000 38.000 M154.944 40.444 C 154.883 40.506,154.833 42.643,154.833 45.194 L 154.833 49.833 159.720 49.833 C 167.172 49.833,168.250 49.222,168.250 44.995 C 168.250 42.430,167.202 40.988,164.995 40.514 C 164.082 40.319,155.132 40.256,154.944 40.444 M273.164 43.585 C 276.917 44.497,279.249 46.853,279.758 50.244 L 279.871 51.000 276.624 51.000 L 273.377 51.000 273.281 50.410 C 272.771 47.264,265.668 46.527,265.099 49.560 C 264.758 51.376,265.860 52.041,271.250 53.271 C 278.011 54.813,280.186 56.377,280.451 59.884 C 280.848 65.125,277.526 68.331,270.991 69.016 C 264.325 69.714,259.095 67.042,257.977 62.368 C 257.484 60.308,257.183 60.500,260.898 60.500 L 264.129 60.500 264.241 61.251 C 264.852 65.326,273.339 65.747,273.631 61.717 C 273.771 59.778,273.064 59.370,266.894 57.831 C 259.859 56.076,258.214 54.686,258.368 50.628 C 258.525 46.496,260.845 44.200,265.661 43.409 C 267.457 43.114,271.628 43.212,273.164 43.585 M298.000 46.079 L 298.000 48.324 295.542 48.371 L 293.083 48.417 293.083 55.083 C 293.083 63.643,292.995 63.422,296.349 63.307 L 298.000 63.250 298.000 65.853 L 298.000 68.456 297.375 68.560 C 294.890 68.970,290.423 68.555,288.872 67.770 C 286.375 66.504,286.276 66.083,286.205 56.375 L 286.146 48.333 284.157 48.333 L 282.167 48.333 282.167 46.083 L 282.167 43.833 290.083 43.833 L 298.000 43.833 298.000 46.079 M308.000 51.469 C 308.000 60.750,308.091 61.425,309.527 62.772 C 311.141 64.286,314.871 63.906,316.260 62.085 C 317.348 60.659,317.399 60.211,317.463 51.625 L 317.521 43.833 320.928 43.833 L 324.335 43.833 324.293 56.125 L 324.250 68.417 321.042 68.462 L 317.833 68.507 317.825 66.712 C 317.816 64.970,317.807 64.929,317.533 65.332 C 314.334 70.026,305.838 70.450,302.821 66.066 C 301.341 63.915,301.168 62.442,301.167 52.042 L 301.167 43.833 304.583 43.833 L 308.000 43.833 308.000 51.469 M365.659 52.169 C 367.168 56.750,368.452 60.442,368.514 60.374 C 368.673 60.197,370.607 54.218,373.690 44.375 L 373.859 43.833 377.346 43.833 C 379.264 43.833,380.833 43.888,380.833 43.954 C 380.833 44.020,380.388 45.276,379.843 46.745 C 376.830 54.873,374.994 59.819,373.748 63.167 C 372.980 65.229,371.895 68.148,371.337 69.654 C 369.432 74.794,368.329 76.022,364.864 76.859 C 364.003 77.066,359.811 77.110,358.702 76.923 L 358.000 76.804 358.000 74.059 L 358.000 71.313 359.998 71.430 C 362.544 71.579,363.284 71.352,364.016 70.197 C 364.956 68.716,364.970 68.771,360.814 57.719 C 357.187 48.074,355.667 43.987,355.667 43.885 C 355.667 43.857,357.298 43.835,359.292 43.837 L 362.917 43.841 365.659 52.169 M339.227 48.506 C 333.927 50.135,333.745 61.155,338.980 63.558 C 340.652 64.326,343.108 63.965,344.617 62.731 C 347.458 60.405,347.617 52.514,344.878 49.764 C 343.644 48.525,341.046 47.947,339.227 48.506 M171.500 104.415 L 171.500 105.667 175.000 105.667 L 178.500 105.667 178.500 115.083 L 178.500 124.500 179.917 124.500 L 181.333 124.500 181.333 115.083 L 181.333 105.667 184.924 105.667 L 188.515 105.667 188.466 104.458 L 188.417 103.250 179.958 103.207 L 171.500 103.164 171.500 104.415 M285.944 103.278 C 285.883 103.339,285.833 108.139,285.833 113.944 L 285.833 124.500 287.250 124.500 L 288.667 124.500 288.667 120.167 L 288.667 115.833 292.492 115.833 C 299.657 115.833,301.721 114.436,301.725 109.583 C 301.728 105.718,299.922 103.692,296.150 103.327 C 294.340 103.152,286.110 103.112,285.944 103.278 M26.853 104.641 C 26.576 105.361,25.705 107.592,24.917 109.600 C 24.130 111.607,22.841 114.900,22.052 116.917 C 21.263 118.933,20.291 121.398,19.892 122.395 C 19.493 123.391,19.167 124.275,19.167 124.359 C 19.167 124.445,19.809 124.492,20.617 124.465 L 22.067 124.417 23.235 121.292 L 24.403 118.167 28.911 118.167 L 33.418 118.167 33.809 119.292 C 34.024 119.910,34.540 121.335,34.957 122.458 L 35.714 124.500 37.274 124.500 C 38.132 124.500,38.833 124.472,38.833 124.437 C 38.833 124.403,38.613 123.821,38.344 123.146 C 38.075 122.470,37.371 120.679,36.780 119.167 C 36.188 117.654,34.896 114.354,33.908 111.833 C 32.920 109.313,31.894 106.688,31.628 106.000 C 31.362 105.313,31.021 104.431,30.870 104.042 L 30.595 103.333 28.976 103.333 L 27.358 103.333 26.853 104.641 M66.500 113.917 L 66.500 124.500 67.739 124.500 L 68.978 124.500 69.039 119.458 C 69.108 113.751,69.178 113.361,70.353 112.186 C 71.963 110.576,75.039 110.585,76.194 112.205 C 76.582 112.748,76.584 112.773,76.631 118.625 L 76.679 124.500 78.017 124.500 L 79.356 124.500 79.294 118.542 C 79.224 111.891,79.164 111.475,78.094 110.225 C 76.315 108.146,72.006 108.176,69.875 110.281 L 69.000 111.145 69.000 107.239 L 69.000 103.333 67.750 103.333 L 66.500 103.333 66.500 113.917 M110.333 104.833 L 110.333 106.333 111.583 106.333 L 112.833 106.333 112.833 104.833 L 112.833 103.333 111.583 103.333 L 110.333 103.333 110.333 104.833 M158.500 107.167 L 158.500 111.000 157.868 110.368 C 156.250 108.750,153.275 108.236,150.825 109.153 C 144.892 111.373,144.869 122.184,150.792 124.521 C 153.105 125.434,156.441 124.908,157.818 123.414 L 158.500 122.674 158.500 123.587 L 158.500 124.500 159.750 124.500 L 161.000 124.500 161.000 113.917 L 161.000 103.333 159.750 103.333 L 158.500 103.333 158.500 107.167 M213.667 104.833 L 213.667 106.333 214.917 106.333 L 216.167 106.333 216.167 104.833 L 216.167 103.333 214.917 103.333 L 213.667 103.333 213.667 104.833 M237.000 104.833 L 237.000 106.333 238.250 106.333 L 239.500 106.333 239.500 104.833 L 239.500 103.333 238.250 103.333 L 237.000 103.333 237.000 104.833 M58.000 106.826 L 58.000 109.167 56.750 109.167 L 55.500 109.167 55.500 110.250 L 55.500 111.333 56.740 111.333 L 57.980 111.333 58.032 116.958 C 58.101 124.498,58.041 124.373,61.617 124.475 L 63.667 124.534 63.667 123.452 L 63.667 122.370 62.440 122.308 C 60.539 122.212,60.667 122.626,60.667 116.563 L 60.667 111.333 62.167 111.333 L 63.667 111.333 63.667 110.250 L 63.667 109.167 62.171 109.167 L 60.676 109.167 60.630 106.875 L 60.583 104.583 59.292 104.535 L 58.000 104.486 58.000 106.826 M331.833 106.833 L 331.833 109.167 330.500 109.167 L 329.167 109.167 329.167 110.250 L 329.167 111.333 330.490 111.333 L 331.813 111.333 331.865 117.042 C 331.933 124.530,331.857 124.372,335.451 124.475 L 337.500 124.534 337.500 123.452 L 337.500 122.370 336.253 122.307 C 334.301 122.208,334.417 122.571,334.417 116.536 L 334.417 111.417 335.958 111.369 L 337.500 111.321 337.500 110.250 L 337.500 109.179 335.958 109.131 L 334.417 109.083 334.370 106.792 L 334.324 104.500 333.079 104.500 L 331.833 104.500 331.833 106.833 M296.750 106.054 C 298.761 106.948,299.562 109.419,298.509 111.483 C 297.690 113.086,296.794 113.372,292.292 113.467 L 288.667 113.544 288.667 109.591 L 288.667 105.639 292.375 105.698 C 295.478 105.748,296.192 105.806,296.750 106.054 M30.122 109.128 C 30.704 110.754,31.470 112.890,31.823 113.875 L 32.465 115.667 28.904 115.667 L 25.343 115.667 25.991 113.875 C 26.347 112.890,27.026 111.033,27.499 109.750 C 27.973 108.467,28.475 107.094,28.616 106.699 C 28.944 105.776,28.886 105.682,30.122 109.128 M87.667 108.923 C 82.879 110.260,80.728 116.087,83.146 121.167 C 85.769 126.676,94.864 126.075,96.740 120.268 C 98.990 113.299,94.062 107.138,87.667 108.923 M106.325 108.894 C 104.981 109.256,103.852 110.153,103.066 111.485 C 102.598 112.276,102.500 112.119,102.500 110.583 L 102.500 109.167 101.333 109.167 L 100.167 109.167 100.167 116.833 L 100.167 124.500 101.417 124.500 L 102.667 124.500 102.670 121.208 C 102.676 113.780,103.455 112.090,107.152 111.480 L 108.333 111.284 108.333 109.976 L 108.333 108.667 107.708 108.678 C 107.365 108.684,106.742 108.781,106.325 108.894 M135.833 108.903 C 130.969 110.368,128.893 116.176,131.412 121.273 C 134.124 126.761,143.123 126.016,144.268 120.208 L 144.375 119.667 143.146 119.667 L 141.917 119.668 141.611 120.410 C 139.946 124.459,133.643 122.958,133.067 118.375 L 132.957 117.500 138.812 117.500 L 144.667 117.500 144.665 116.708 C 144.658 111.439,140.275 107.566,135.833 108.903 M193.750 108.900 C 192.327 109.350,191.118 110.353,190.389 111.689 L 190.083 112.250 190.035 110.708 L 189.987 109.167 188.827 109.167 L 187.667 109.167 187.667 116.833 L 187.667 124.500 188.917 124.500 L 190.167 124.500 190.167 120.614 C 190.167 113.653,191.083 111.863,194.875 111.421 L 195.833 111.309 195.833 109.988 L 195.833 108.667 195.125 108.678 C 194.735 108.684,194.117 108.784,193.750 108.900 M201.863 108.834 C 199.375 109.361,197.757 110.922,197.414 113.125 L 197.304 113.833 198.652 113.833 L 200.000 113.833 200.000 113.358 C 200.000 110.318,206.639 110.060,207.080 113.083 C 207.292 114.533,206.593 115.051,203.825 115.497 C 197.963 116.442,196.364 117.730,196.729 121.215 C 197.129 125.047,202.695 126.360,206.337 123.482 C 206.879 123.053,207.193 122.896,207.230 123.036 C 207.488 123.993,207.660 124.288,208.152 124.620 C 209.534 125.551,211.167 125.026,211.167 123.650 L 211.167 122.667 210.593 122.667 C 209.751 122.667,209.757 122.702,209.667 116.917 C 209.574 110.960,209.524 110.704,208.293 109.777 C 207.121 108.894,203.846 108.414,201.863 108.834 M226.417 108.779 C 225.267 109.033,224.275 109.601,223.498 110.450 L 222.667 111.360 222.667 110.263 L 222.667 109.167 221.417 109.167 L 220.167 109.167 220.167 116.833 L 220.167 124.500 221.500 124.500 L 222.833 124.500 222.833 119.758 C 222.833 114.478,222.936 113.662,223.731 112.618 C 225.249 110.626,228.765 110.397,229.967 112.213 L 230.417 112.892 230.466 118.696 L 230.516 124.500 231.766 124.500 L 233.015 124.500 232.966 118.292 L 232.917 112.083 232.445 111.124 C 231.532 109.263,228.886 108.234,226.417 108.779 M249.289 108.848 C 248.245 109.094,247.419 109.605,246.606 110.510 L 245.833 111.369 245.833 110.268 L 245.833 109.167 244.583 109.167 L 243.333 109.167 243.333 116.833 L 243.333 124.500 244.667 124.500 L 246.000 124.500 246.000 119.614 C 246.000 112.565,246.601 111.283,250.018 111.038 C 253.297 110.802,253.667 111.611,253.667 119.025 L 253.667 124.500 254.926 124.500 L 256.185 124.500 256.134 118.292 C 256.077 111.296,256.065 111.227,254.745 109.945 C 253.650 108.881,251.221 108.393,249.289 108.848 M264.417 108.892 C 257.501 110.686,257.245 122.618,264.083 124.441 C 266.570 125.103,269.465 124.251,270.527 122.544 L 270.917 121.917 270.969 122.555 C 271.132 124.539,270.245 127.022,269.045 127.938 C 267.055 129.455,262.924 128.711,262.431 126.746 C 262.298 126.219,259.833 126.086,259.833 126.606 C 259.833 131.098,269.206 132.477,272.013 128.398 C 273.257 126.590,273.244 126.698,273.300 117.458 L 273.351 109.167 272.175 109.167 L 271.000 109.167 271.000 110.185 L 271.000 111.203 270.255 110.374 C 268.952 108.925,266.596 108.326,264.417 108.892 M309.206 108.832 C 306.655 109.375,305.098 110.873,304.736 113.132 L 304.624 113.833 305.979 113.833 L 307.333 113.833 307.333 113.358 C 307.333 110.925,312.941 109.960,314.098 112.194 C 314.954 113.846,314.237 114.994,312.143 115.323 C 305.423 116.378,304.089 117.249,304.085 120.583 C 304.080 124.908,309.701 126.619,313.653 123.495 L 314.473 122.847 314.695 123.544 C 315.329 125.533,318.500 125.622,318.500 123.650 L 318.500 122.667 317.937 122.667 C 317.022 122.667,317.022 122.663,316.967 116.910 C 316.912 111.040,316.859 110.735,315.741 109.856 C 314.561 108.928,311.220 108.404,309.206 108.832 M326.967 108.900 C 325.623 109.262,324.445 110.260,323.385 111.936 C 323.223 112.193,323.184 111.968,323.176 110.708 L 323.167 109.167 322.000 109.167 L 320.833 109.167 320.833 116.833 L 320.833 124.500 322.083 124.500 L 323.333 124.500 323.335 120.708 C 323.337 113.714,324.277 111.860,328.042 111.421 L 329.000 111.309 329.000 109.988 L 329.000 108.667 328.375 108.678 C 328.031 108.684,327.398 108.784,326.967 108.900 M345.917 108.890 C 344.692 109.298,343.875 109.815,343.186 110.619 L 342.502 111.417 342.501 110.292 L 342.500 109.167 341.333 109.167 L 340.167 109.167 340.167 116.833 L 340.167 124.500 341.406 124.500 L 342.645 124.500 342.705 119.458 C 342.774 113.751,342.845 113.361,344.020 112.186 C 345.634 110.572,348.691 110.589,349.901 112.220 C 350.238 112.674,350.252 112.902,350.298 118.595 L 350.345 124.500 351.684 124.500 L 353.023 124.500 352.960 118.542 C 352.891 111.891,352.831 111.475,351.761 110.225 C 350.667 108.946,347.747 108.279,345.917 108.890 M361.616 108.839 C 356.678 110.083,354.461 116.398,357.174 121.489 C 359.987 126.765,368.804 125.854,369.941 120.169 L 370.042 119.667 368.793 119.667 L 367.545 119.667 367.263 120.406 C 366.705 121.866,365.371 122.664,363.485 122.666 C 360.819 122.668,359.099 121.113,358.739 118.375 L 358.624 117.500 364.502 117.500 L 370.381 117.500 370.271 116.311 C 369.770 110.921,366.061 107.718,361.616 108.839 M379.250 108.825 C 377.800 109.187,376.683 109.995,375.885 111.258 C 375.241 112.278,375.167 112.208,375.167 110.583 L 375.167 109.167 374.000 109.167 L 372.833 109.167 372.833 116.833 L 372.833 124.500 374.083 124.500 L 375.333 124.500 375.336 121.208 C 375.343 113.780,376.121 112.090,379.819 111.480 L 381.000 111.284 381.000 109.976 L 381.000 108.667 380.375 108.684 C 380.031 108.693,379.525 108.757,379.250 108.825 M40.531 115.375 C 40.583 121.521,40.587 121.591,40.979 122.387 C 42.626 125.732,47.978 125.947,50.458 122.769 L 50.833 122.288 50.833 123.394 L 50.833 124.500 52.083 124.500 L 53.333 124.500 53.333 116.833 L 53.333 109.167 52.000 109.167 L 50.667 109.167 50.667 114.137 C 50.667 121.034,50.080 122.328,46.820 122.623 C 43.388 122.935,43.009 122.147,43.004 114.708 L 43.000 109.167 41.739 109.167 L 40.478 109.167 40.531 115.375 M110.333 116.833 L 110.333 124.500 111.583 124.500 L 112.833 124.500 112.833 116.833 L 112.833 109.167 111.583 109.167 L 110.333 109.167 110.333 116.833 M116.167 110.250 L 116.167 111.333 120.434 111.333 C 124.005 111.333,124.688 111.371,124.614 111.564 C 124.565 111.692,122.532 114.204,120.096 117.148 L 115.667 122.501 115.667 123.501 L 115.667 124.500 122.167 124.500 L 128.667 124.500 128.667 123.417 L 128.667 122.333 123.833 122.333 C 121.175 122.333,119.000 122.274,119.000 122.201 C 119.000 122.129,121.063 119.563,123.583 116.500 L 128.167 110.931 128.167 110.049 L 128.167 109.167 122.167 109.167 L 116.167 109.167 116.167 110.250 M213.667 116.833 L 213.667 124.500 214.917 124.500 L 216.167 124.500 216.167 116.833 L 216.167 109.167 214.917 109.167 L 213.667 109.167 213.667 116.833 M237.000 116.833 L 237.000 124.500 238.250 124.500 L 239.500 124.500 239.500 116.833 L 239.500 109.167 238.250 109.167 L 237.000 109.167 237.000 116.833 M91.327 111.248 C 95.638 112.769,95.658 120.946,91.355 122.412 C 89.041 123.200,86.729 122.267,85.673 120.119 C 83.237 115.164,86.761 109.637,91.327 111.248 M139.048 111.264 C 140.459 111.744,141.821 113.473,141.830 114.794 L 141.833 115.339 137.458 115.294 L 133.083 115.250 133.140 114.771 C 133.463 112.018,136.307 110.330,139.048 111.264 M155.932 111.461 C 159.682 113.397,159.395 121.044,155.521 122.410 C 151.693 123.759,148.459 120.362,149.150 115.717 C 149.736 111.782,152.813 109.851,155.932 111.461 M268.270 111.400 C 270.284 112.338,271.279 115.314,270.599 118.369 C 269.388 123.812,263.019 123.851,262.015 118.422 C 261.055 113.229,264.321 109.562,268.270 111.400 M364.639 111.240 C 366.092 111.753,367.241 113.115,367.439 114.558 L 367.546 115.339 363.148 115.294 L 358.750 115.250 358.806 114.750 C 359.108 112.054,362.005 110.311,364.639 111.240 M207.132 118.292 C 207.083 119.314,206.955 120.107,206.787 120.429 C 205.226 123.440,199.333 123.439,199.333 120.428 C 199.333 118.700,200.577 117.906,204.028 117.426 C 205.006 117.290,206.056 117.070,206.362 116.936 C 206.667 116.803,206.983 116.688,207.064 116.680 C 207.145 116.673,207.176 117.398,207.132 118.292 M314.454 118.421 C 314.402 119.298,314.253 120.172,314.109 120.451 C 312.562 123.442,306.667 123.423,306.667 120.428 C 306.667 118.700,307.910 117.906,311.362 117.426 C 312.340 117.290,313.390 117.074,313.695 116.946 C 314.499 116.609,314.556 116.719,314.454 118.421 " stroke="none" fill="#fbfbfb" fill-rule="evenodd"></path><path id="path2" d="M93.833 19.525 C 75.637 21.205,56.924 31.690,45.804 46.435 C 45.721 46.545,45.994 47.387,46.479 48.518 C 47.562 51.044,49.190 55.013,50.797 59.043 L 52.110 62.337 53.624 59.293 C 63.675 39.092,77.387 26.277,95.833 19.846 L 97.250 19.352 96.333 19.366 C 95.829 19.373,94.704 19.444,93.833 19.525 M37.655 35.020 C 34.837 36.839,32.242 40.370,31.400 43.530 C 31.047 44.853,30.648 43.702,34.973 53.833 L 38.139 61.250 39.611 61.947 C 41.964 63.062,43.501 63.400,46.250 63.408 C 48.853 63.415,50.424 63.142,50.258 62.711 C 50.205 62.574,48.354 57.951,46.145 52.439 C 43.936 46.927,41.425 40.658,40.565 38.509 C 38.700 33.846,38.970 34.171,37.655 35.020 M346.663 40.625 L 346.660 46.750 345.955 45.963 C 342.316 41.902,334.756 42.348,331.274 46.830 C 326.228 53.323,327.980 64.680,334.535 67.969 C 338.859 70.140,344.361 69.097,346.700 65.665 C 346.975 65.261,346.983 65.293,346.991 66.875 L 347.000 68.500 350.167 68.500 L 353.333 68.500 353.333 51.500 L 353.333 34.500 350.000 34.500 L 346.667 34.500 346.663 40.625 M286.333 38.000 L 286.333 41.333 289.667 41.333 L 293.000 41.333 293.000 38.000 L 293.000 34.667 289.667 34.667 L 286.333 34.667 286.333 38.000 M265.661 43.409 C 260.845 44.200,258.525 46.496,258.368 50.628 C 258.214 54.686,259.859 56.076,266.894 57.831 C 273.064 59.370,273.771 59.778,273.631 61.717 C 273.339 65.747,264.852 65.326,264.241 61.251 L 264.129 60.500 260.898 60.500 C 257.183 60.500,257.484 60.308,257.977 62.368 C 259.095 67.042,264.325 69.714,270.991 69.016 C 277.526 68.331,280.848 65.125,280.451 59.884 C 280.186 56.377,278.011 54.813,271.250 53.271 C 265.860 52.041,264.758 51.376,265.099 49.560 C 265.342 48.263,266.448 47.753,269.000 47.761 C 271.571 47.769,272.996 48.650,273.281 50.410 L 273.377 51.000 276.624 51.000 L 279.871 51.000 279.758 50.244 C 278.966 44.963,273.204 42.169,265.661 43.409 M282.167 46.083 L 282.167 48.333 284.157 48.333 L 286.146 48.333 286.205 56.375 C 286.276 66.083,286.375 66.504,288.872 67.770 C 290.423 68.555,294.890 68.970,297.375 68.560 L 298.000 68.456 298.000 65.853 L 298.000 63.250 296.349 63.307 C 292.995 63.422,293.083 63.643,293.083 55.083 L 293.083 48.417 295.542 48.371 L 298.000 48.324 298.000 46.079 L 298.000 43.833 290.083 43.833 L 282.167 43.833 282.167 46.083 M301.167 52.042 C 301.168 62.442,301.341 63.915,302.821 66.066 C 305.838 70.450,314.334 70.026,317.533 65.332 C 317.807 64.929,317.816 64.970,317.825 66.712 L 317.833 68.507 321.042 68.462 L 324.250 68.417 324.293 56.125 L 324.335 43.833 320.928 43.833 L 317.521 43.833 317.463 51.625 C 317.399 60.211,317.348 60.659,316.260 62.085 C 314.871 63.906,311.141 64.286,309.527 62.772 C 308.091 61.425,308.000 60.750,308.000 51.469 L 308.000 43.833 304.583 43.833 L 301.167 43.833 301.167 52.042 M355.667 43.885 C 355.667 43.987,357.187 48.074,360.814 57.719 C 364.970 68.771,364.956 68.716,364.016 70.197 C 363.284 71.352,362.544 71.579,359.998 71.430 L 358.000 71.313 358.000 74.059 L 358.000 76.804 358.702 76.923 C 359.811 77.110,364.003 77.066,364.864 76.859 C 368.329 76.022,369.432 74.794,371.337 69.654 C 371.895 68.148,372.980 65.229,373.748 63.167 C 374.994 59.819,376.830 54.873,379.843 46.745 C 380.388 45.276,380.833 44.020,380.833 43.954 C 380.833 43.888,379.264 43.833,377.346 43.833 L 373.859 43.833 373.690 44.375 C 370.607 54.218,368.673 60.197,368.514 60.374 C 368.452 60.442,367.168 56.750,365.659 52.169 L 362.917 43.841 359.292 43.837 C 357.298 43.835,355.667 43.857,355.667 43.885 M343.583 48.785 C 348.227 51.215,347.933 61.662,343.167 63.610 C 342.082 64.053,340.002 64.027,338.980 63.558 C 333.745 61.155,333.927 50.135,339.227 48.506 C 340.161 48.219,342.828 48.390,343.583 48.785 " stroke="none" fill="#000000" fill-rule="evenodd"></path></g></svg>