<?xml version="1.0" standalone="no"?>
<!DOCTYPE svg PUBLIC "-//W3C//DTD SVG 20010904//EN"
 "http://www.w3.org/TR/2001/REC-SVG-20010904/DTD/svg10.dtd">
<svg version="1.0" xmlns="http://www.w3.org/2000/svg"
 width="192.000000pt" height="192.000000pt" viewBox="0 0 192.000000 192.000000"
 preserveAspectRatio="xMidYMid meet">
<metadata>
Created by potrace 1.16, written by Peter Selinger 2001-2019
</metadata>
<g transform="translate(0.000000,192.000000) scale(0.100000,-0.100000)"
fill="#000000" stroke="none">
<path d="M830 1874 c-231 -42 -388 -120 -536 -268 -104 -105 -153 -176 -205
-296 -60 -141 -74 -214 -74 -385 1 -164 15 -235 75 -377 105 -245 324 -439
591 -523 84 -26 92 -26 295 -23 205 3 211 4 296 34 146 52 230 107 349 224
110 109 158 177 209 300 199 467 0 1001 -455 1222 -140 68 -231 89 -390 93
-71 2 -141 1 -155 -1z m369 -63 c83 -24 215 -88 276 -132 157 -116 282 -296
338 -486 19 -66 22 -102 22 -233 0 -147 -2 -160 -32 -255 -94 -291 -308 -503
-598 -591 -81 -25 -105 -28 -245 -28 -140 0 -164 3 -245 28 -153 46 -293 133
-400 247 -95 101 -154 206 -201 354 -26 83 -29 103 -29 245 0 131 3 167 22
233 56 191 180 370 338 486 89 65 247 130 375 155 14 2 88 3 165 1 106 -2 158
-8 214 -24z"/>
<path d="M673 1508 c-12 -13 -42 -63 -67 -113 -80 -160 -176 -285 -276 -361
-58 -44 -62 -64 -21 -105 37 -36 72 -37 136 -4 l48 26 -6 -33 c-4 -18 -13 -64
-22 -103 -20 -91 -19 -192 1 -263 32 -109 137 -183 239 -168 159 25 302 194
467 551 l23 50 6 -105 c10 -159 40 -232 114 -275 111 -65 297 -2 354 120 25
53 28 127 6 145 -13 11 -22 8 -53 -22 -114 -108 -182 -110 -197 -6 -3 24 -9
129 -14 233 -7 164 -11 196 -29 232 -31 61 -105 76 -147 31 -12 -13 -70 -116
-128 -229 -117 -229 -145 -276 -230 -397 -69 -97 -97 -120 -131 -104 -36 16
-50 86 -36 181 14 96 35 199 56 276 80 297 88 386 38 440 -31 34 -101 35 -131
3z"/>
</g>
</svg>
