<?xml version="1.0" standalone="no"?>
<!DOCTYPE svg PUBLIC "-//W3C//DTD SVG 20010904//EN"
 "http://www.w3.org/TR/2001/REC-SVG-20010904/DTD/svg10.dtd">
<svg version="1.0" xmlns="http://www.w3.org/2000/svg"
 width="173.000000pt" height="173.000000pt" viewBox="0 0 173.000000 173.000000"
 preserveAspectRatio="xMidYMid meet">

<g transform="translate(0.000000,173.000000) scale(0.100000,-0.100000)"
fill="#000000" stroke="none">
<path d="M696 1651 c-132 -29 -276 -104 -371 -193 -125 -117 -193 -226 -241
-385 -23 -76 -27 -106 -27 -218 0 -112 4 -142 27 -218 47 -157 112 -262 228
-373 266 -252 653 -295 972 -108 257 150 409 436 393 738 -9 177 -59 315 -162
453 -186 247 -517 369 -819 304z m304 -35 c537 -98 807 -692 529 -1163 -48
-82 -180 -212 -266 -262 -178 -105 -391 -136 -588 -86 -86 22 -230 96 -302
155 -119 98 -223 265 -259 415 -23 95 -22 268 0 360 99 396 490 652 886 581z"/>
<path d="M694 1521 c-231 -63 -406 -230 -484 -461 -30 -89 -37 -250 -17 -347
54 -254 255 -461 512 -528 79 -21 232 -21 320 -1 189 44 370 186 453 356 57
116 76 194 76 315 0 122 -19 201 -75 312 -76 152 -224 281 -385 338 -108 38
-293 45 -400 16z m326 -37 c116 -27 205 -79 301 -174 133 -132 192 -272 192
-455 0 -183 -59 -324 -192 -456 -133 -132 -269 -189 -453 -189 -118 0 -176 14
-287 67 -175 84 -307 253 -347 443 -20 95 -14 240 15 330 69 219 281 406 501
443 61 10 210 5 270 -9z"/>
<path d="M525 1193 c15 -107 87 -207 182 -257 l48 -25 -117 -1 -118 0 0 -60 0
-60 122 0 122 0 -52 -26 c-76 -38 -147 -120 -172 -201 -32 -103 -32 -103 50
-103 68 0 70 1 70 25 0 31 24 81 54 113 19 22 67 52 81 52 3 0 5 -43 5 -95 l0
-95 60 0 60 0 0 95 c0 107 3 110 63 70 38 -27 70 -77 82 -133 l7 -32 64 0 64
0 0 35 c0 107 -103 243 -215 283 -24 8 -7 11 93 11 l122 1 0 60 0 60 -117 0
-117 0 52 26 c96 48 182 175 182 269 l0 35 -64 0 -64 0 -7 -40 c-9 -52 -55
-115 -105 -140 l-40 -20 0 100 0 100 -60 0 -60 0 0 -100 0 -101 -27 15 c-62
32 -113 106 -113 162 0 23 -2 24 -71 24 l-71 0 7 -47z"/>
</g>
</svg>
